<svg width="624" height="209" xmlns="http://www.w3.org/2000/svg" xmlns:xlink="http://www.w3.org/1999/xlink" xml:space="preserve" overflow="hidden"><g><g><path d="M59.9717 192.179C59.9717 189.267 62.3327 186.906 65.2455 186.906L135.273 186.906C138.186 186.906 140.547 189.267 140.547 192.179L140.547 213.273C140.547 216.186 138.186 218.547 135.273 218.547L65.2455 218.547C62.3327 218.547 59.9717 216.186 59.9717 213.273Z" stroke="#000000" stroke-width="0.735849" stroke-linecap="butt" stroke-linejoin="miter" stroke-miterlimit="8" stroke-opacity="1" fill="#FFFFFF" fill-rule="evenodd" fill-opacity="1" transform="matrix(1 0 0 1.00009 -41.2075 -94.1972)"/><text fill="#000000" fill-opacity="1" font-family="Calibri,Calibri_MSFontService,sans-serif" font-style="normal" font-variant="normal" font-weight="400" font-stretch="normal" font-size="28" text-anchor="start" direction="ltr" writing-mode="lr-tb" unicode-bidi="normal" text-decoration="none" transform="matrix(0.367925 0 0 0.367958 34.281 106)">Information </text><text fill="#000000" fill-opacity="1" font-family="Calibri,Calibri_MSFontService,sans-serif" font-style="normal" font-variant="normal" font-weight="400" font-stretch="normal" font-size="28" text-anchor="start" direction="ltr" writing-mode="lr-tb" unicode-bidi="normal" text-decoration="none" transform="matrix(0.367925 0 0 0.367958 42.9971 118)">Scarcity</text><path d="M289.189 191.076C289.189 188.163 291.55 185.802 294.463 185.802L364.49 185.802C367.403 185.802 369.764 188.163 369.764 191.076L369.764 212.17C369.764 215.082 367.403 217.443 364.49 217.443L294.463 217.443C291.55 217.443 289.189 215.082 289.189 212.17Z" stroke="#000000" stroke-width="0.735849" stroke-linecap="butt" stroke-linejoin="miter" stroke-miterlimit="8" stroke-opacity="1" fill="#FFFFFF" fill-rule="evenodd" fill-opacity="1" transform="matrix(1 0 0 1.00009 -41.2075 -94.1972)"/><text fill="#000000" fill-opacity="1" font-family="Calibri,Calibri_MSFontService,sans-serif" font-style="normal" font-variant="normal" font-weight="400" font-stretch="normal" font-size="28" text-anchor="start" direction="ltr" writing-mode="lr-tb" unicode-bidi="normal" text-decoration="none" transform="matrix(0.367925 0 0 0.367958 276.617 105)">News </text><text fill="#000000" fill-opacity="1" font-family="Calibri,Calibri_MSFontService,sans-serif" font-style="normal" font-variant="normal" font-weight="400" font-stretch="normal" font-size="28" text-anchor="start" direction="ltr" writing-mode="lr-tb" unicode-bidi="normal" text-decoration="none" transform="matrix(0.367925 0 0 0.367958 262.666 117)">Believability</text><path d="M0.00248201-0.367916 144.857 0.609294 144.853 1.34512-0.00248201 0.367916ZM144.134-1.23525 148.534 1.00203 144.104 3.17974Z" fill="#000000" fill-rule="nonzero" fill-opacity="1" transform="matrix(1 0 0 -1.00009 99.3396 108.446)"/><path d="M369.764 201.255 526.493 201.255 526.493 201.991 369.764 201.991ZM525.757 199.415 530.172 201.623 525.757 203.83Z" fill="#000000" fill-rule="nonzero" fill-opacity="1" transform="matrix(1 0 0 1.00009 -41.2075 -94.1972)"/><path d="M155.264 123.378C155.264 120.465 157.625 118.104 160.538 118.104L230.198 118.104C233.111 118.104 235.472 120.465 235.472 123.378L235.472 144.471C235.472 147.384 233.111 149.745 230.198 149.745L160.538 149.745C157.625 149.745 155.264 147.384 155.264 144.471Z" stroke="#000000" stroke-width="0.735849" stroke-linecap="butt" stroke-linejoin="miter" stroke-miterlimit="8" stroke-opacity="1" fill="#FFFFFF" fill-rule="evenodd" fill-opacity="1" transform="matrix(1 0 0 1.00009 -41.2075 -94.1972)"/><text fill="#000000" fill-opacity="1" font-family="Calibri,Calibri_MSFontService,sans-serif" font-style="normal" font-variant="normal" font-weight="400" font-stretch="normal" font-size="28" text-anchor="start" direction="ltr" writing-mode="lr-tb" unicode-bidi="normal" text-decoration="none" transform="matrix(0.367925 0 0 0.367958 129.334 37)">Information </text><text fill="#000000" fill-opacity="1" font-family="Calibri,Calibri_MSFontService,sans-serif" font-style="normal" font-variant="normal" font-weight="400" font-stretch="normal" font-size="28" text-anchor="start" direction="ltr" writing-mode="lr-tb" unicode-bidi="normal" text-decoration="none" transform="matrix(0.367925 0 0 0.367958 137.807 50)">Valence</text><path d="M152.321 259.142C152.321 256.229 154.682 253.868 157.595 253.868L227.622 253.868C230.535 253.868 232.896 256.229 232.896 259.142L232.896 280.236C232.896 283.148 230.535 285.509 227.622 285.509L157.595 285.509C154.682 285.509 152.321 283.148 152.321 280.236Z" stroke="#000000" stroke-width="0.735849" stroke-linecap="butt" stroke-linejoin="miter" stroke-miterlimit="8" stroke-opacity="1" fill="#FFFFFF" fill-rule="evenodd" fill-opacity="1" transform="matrix(1 0 0 1.00009 -41.2075 -94.1972)"/><text fill="#000000" fill-opacity="1" font-family="Calibri,Calibri_MSFontService,sans-serif" font-style="normal" font-variant="normal" font-weight="400" font-stretch="normal" font-size="28" text-anchor="start" direction="ltr" writing-mode="lr-tb" unicode-bidi="normal" text-decoration="none" transform="matrix(0.367925 0 0 0.367958 126.698 173)">Information </text><text fill="#000000" fill-opacity="1" font-family="Calibri,Calibri_MSFontService,sans-serif" font-style="normal" font-variant="normal" font-weight="400" font-stretch="normal" font-size="28" text-anchor="start" direction="ltr" writing-mode="lr-tb" unicode-bidi="normal" text-decoration="none" transform="matrix(0.367925 0 0 0.367958 132.357 185)">Overload</text><path d="M0.367925-3.99695e-07 0.36798 49.6562-0.36787 49.6562-0.367925 3.99695e-07ZM2.2076 48.9203 5.79408e-05 53.3354-2.2075 48.9203Z" fill="#000000" fill-rule="nonzero" fill-opacity="1" transform="matrix(1 0 0 -1.00009 151.585 160.416)"/><path d="M193.16 149.745 193.16 198.392 192.425 198.392 192.425 149.745ZM195 197.656 192.792 202.072 190.585 197.656Z" fill="#000000" fill-rule="nonzero" fill-opacity="1" transform="matrix(1 0 0 1.00009 -41.2075 -94.1972)"/><path d="M195.464 149.39 325.879 184.541 325.688 185.251 195.272 150.101ZM325.647 182.573 329.336 185.854 324.498 186.836Z" fill="#000000" fill-rule="nonzero" fill-opacity="1" transform="matrix(1 0 0 1.00009 -41.2075 -94.1972)"/><path d="M0.0930573-0.355962 133.138 34.4252 132.951 35.1371-0.0930573 0.355962ZM132.891 32.4592 136.604 35.7117 131.774 36.7308Z" fill="#000000" fill-rule="nonzero" fill-opacity="1" transform="matrix(1 0 0 -1.00009 151.585 158.981)"/><path d="M534.962 186.415C534.962 184.857 536.224 183.594 537.784 183.594L639.206 183.594C640.766 183.594 642.028 184.857 642.028 186.415L642.028 197.698C642.028 199.256 640.766 200.519 639.206 200.519L537.784 200.519C536.224 200.519 534.962 199.256 534.962 197.698Z" stroke="#000000" stroke-width="0.735849" stroke-linecap="butt" stroke-linejoin="miter" stroke-miterlimit="8" stroke-opacity="1" fill="#FFFFFF" fill-rule="evenodd" fill-opacity="1" transform="matrix(1 0 0 1.00009 -41.2075 -94.1972)"/><text fill="#000000" fill-opacity="1" font-family="Calibri,Calibri_MSFontService,sans-serif" font-style="normal" font-variant="normal" font-weight="400" font-stretch="normal" font-size="24" text-anchor="start" direction="ltr" writing-mode="lr-tb" unicode-bidi="normal" text-decoration="none" transform="matrix(0.367925 0 0 0.367958 499.737 101)">a) Information Verification</text><path d="M534.962 205.547C534.962 203.99 536.224 202.726 537.784 202.726L639.206 202.726C640.766 202.726 642.028 203.99 642.028 205.547L642.028 216.83C642.028 218.388 640.766 219.651 639.206 219.651L537.784 219.651C536.224 219.651 534.962 218.388 534.962 216.83Z" stroke="#000000" stroke-width="0.735849" stroke-linecap="butt" stroke-linejoin="miter" stroke-miterlimit="8" stroke-opacity="1" fill="#FFFFFF" fill-rule="evenodd" fill-opacity="1" transform="matrix(1 0 0 1.00009 -41.2075 -94.1972)"/><text fill="#000000" fill-opacity="1" font-family="Calibri,Calibri_MSFontService,sans-serif" font-style="normal" font-variant="normal" font-weight="400" font-stretch="normal" font-size="24" text-anchor="start" direction="ltr" writing-mode="lr-tb" unicode-bidi="normal" text-decoration="none" transform="matrix(0.367925 0 0 0.367958 499.737 120)">b) Information Sharing</text><text fill="#000000" fill-opacity="1" font-family="Calibri,Calibri_MSFontService,sans-serif" font-style="normal" font-variant="normal" font-weight="400" font-stretch="normal" font-size="28" text-anchor="start" direction="ltr" writing-mode="lr-tb" unicode-bidi="normal" text-decoration="none" transform="matrix(0.367925 0 0 0.367958 104.035 120)">H1 (+)</text><text fill="#000000" fill-opacity="1" font-family="Calibri,Calibri_MSFontService,sans-serif" font-style="normal" font-variant="normal" font-weight="400" font-stretch="normal" font-size="28" text-anchor="start" direction="ltr" writing-mode="lr-tb" unicode-bidi="normal" text-decoration="none" transform="matrix(0.367925 0 0 0.367958 222.208 68)">H2 (</text><text fill="#000000" fill-opacity="1" font-family="Calibri,Calibri_MSFontService,sans-serif" font-style="normal" font-variant="normal" font-weight="400" font-stretch="normal" font-size="28" text-anchor="start" direction="ltr" writing-mode="lr-tb" unicode-bidi="normal" text-decoration="none" transform="matrix(0.367925 0 0 0.367958 239.317 68)">-</text><text fill="#000000" fill-opacity="1" font-family="Calibri,Calibri_MSFontService,sans-serif" font-style="normal" font-variant="normal" font-weight="400" font-stretch="normal" font-size="28" text-anchor="start" direction="ltr" writing-mode="lr-tb" unicode-bidi="normal" text-decoration="none" transform="matrix(0.367925 0 0 0.367958 242.444 68)">)</text><text fill="#000000" fill-opacity="1" font-family="Calibri,Calibri_MSFontService,sans-serif" font-style="normal" font-variant="normal" font-weight="400" font-stretch="normal" font-size="28" text-anchor="start" direction="ltr" writing-mode="lr-tb" unicode-bidi="normal" text-decoration="none" transform="matrix(0.367925 0 0 0.367958 222.973 155)">H3 (</text><text fill="#000000" fill-opacity="1" font-family="Calibri,Calibri_MSFontService,sans-serif" font-style="normal" font-variant="normal" font-weight="400" font-stretch="normal" font-size="28" text-anchor="start" direction="ltr" writing-mode="lr-tb" unicode-bidi="normal" text-decoration="none" transform="matrix(0.367925 0 0 0.367958 240.081 155)">-</text><text fill="#000000" fill-opacity="1" font-family="Calibri,Calibri_MSFontService,sans-serif" font-style="normal" font-variant="normal" font-weight="400" font-stretch="normal" font-size="28" text-anchor="start" direction="ltr" writing-mode="lr-tb" unicode-bidi="normal" text-decoration="none" transform="matrix(0.367925 0 0 0.367958 243.208 155)">)</text><text fill="#000000" fill-opacity="1" font-family="Calibri,Calibri_MSFontService,sans-serif" font-style="normal" font-variant="normal" font-weight="400" font-stretch="normal" font-size="28" text-anchor="start" direction="ltr" writing-mode="lr-tb" unicode-bidi="normal" text-decoration="none" transform="matrix(0.367925 0 0 0.367958 156.073 87)">H4 (</text><text fill="#000000" fill-opacity="1" font-family="Calibri,Calibri_MSFontService,sans-serif" font-style="normal" font-variant="normal" font-weight="400" font-stretch="normal" font-size="28" text-anchor="start" direction="ltr" writing-mode="lr-tb" unicode-bidi="normal" text-decoration="none" transform="matrix(0.367925 0 0 0.367958 173.182 87)">-</text><text fill="#000000" fill-opacity="1" font-family="Calibri,Calibri_MSFontService,sans-serif" font-style="normal" font-variant="normal" font-weight="400" font-stretch="normal" font-size="28" text-anchor="start" direction="ltr" writing-mode="lr-tb" unicode-bidi="normal" text-decoration="none" transform="matrix(0.367925 0 0 0.367958 176.309 87)">)</text><text fill="#000000" fill-opacity="1" font-family="Calibri,Calibri_MSFontService,sans-serif" font-style="normal" font-variant="normal" font-weight="400" font-stretch="normal" font-size="28" text-anchor="start" direction="ltr" writing-mode="lr-tb" unicode-bidi="normal" text-decoration="none" transform="matrix(0.367925 0 0 0.367958 156.073 131)">H5 (</text><text fill="#000000" fill-opacity="1" font-family="Calibri,Calibri_MSFontService,sans-serif" font-style="normal" font-variant="normal" font-weight="400" font-stretch="normal" font-size="28" text-anchor="start" direction="ltr" writing-mode="lr-tb" unicode-bidi="normal" text-decoration="none" transform="matrix(0.367925 0 0 0.367958 173.182 131)">-</text><text fill="#000000" fill-opacity="1" font-family="Calibri,Calibri_MSFontService,sans-serif" font-style="normal" font-variant="normal" font-weight="400" font-stretch="normal" font-size="28" text-anchor="start" direction="ltr" writing-mode="lr-tb" unicode-bidi="normal" text-decoration="none" transform="matrix(0.367925 0 0 0.367958 176.309 131)">)</text><text fill="#000000" fill-opacity="1" font-family="Calibri,Calibri_MSFontService,sans-serif" font-style="normal" font-variant="normal" font-weight="400" font-stretch="normal" font-size="28" text-anchor="start" direction="ltr" writing-mode="lr-tb" unicode-bidi="normal" text-decoration="none" transform="matrix(0.367925 0 0 0.367958 390.397 90)">H6a (</text><text fill="#000000" fill-opacity="1" font-family="Calibri,Calibri_MSFontService,sans-serif" font-style="normal" font-variant="normal" font-weight="400" font-stretch="normal" font-size="28" text-anchor="start" direction="ltr" writing-mode="lr-tb" unicode-bidi="normal" text-decoration="none" transform="matrix(0.367925 0 0 0.367958 412.473 90)">-</text><text fill="#000000" fill-opacity="1" font-family="Calibri,Calibri_MSFontService,sans-serif" font-style="normal" font-variant="normal" font-weight="400" font-stretch="normal" font-size="28" text-anchor="start" direction="ltr" writing-mode="lr-tb" unicode-bidi="normal" text-decoration="none" transform="matrix(0.367925 0 0 0.367958 415.6 90)">)</text><text fill="#000000" fill-opacity="1" font-family="Calibri,Calibri_MSFontService,sans-serif" font-style="normal" font-variant="normal" font-weight="400" font-stretch="normal" font-size="28" text-anchor="start" direction="ltr" writing-mode="lr-tb" unicode-bidi="normal" text-decoration="none" transform="matrix(0.367925 0 0 0.367958 390.397 102)">H6b (+)</text><text fill="#000000" fill-opacity="1" font-family="Calibri,Calibri_MSFontService,sans-serif" font-style="normal" font-variant="normal" font-weight="400" font-stretch="normal" font-size="28" text-anchor="start" direction="ltr" writing-mode="lr-tb" unicode-bidi="normal" text-decoration="none" transform="matrix(0.367925 0 0 0.367958 261.312 30)">H7a</text><text fill="#000000" fill-opacity="1" font-family="Calibri,Calibri_MSFontService,sans-serif" font-style="normal" font-variant="normal" font-weight="400" font-stretch="normal" font-size="28" text-anchor="start" direction="ltr" writing-mode="lr-tb" unicode-bidi="normal" text-decoration="none" transform="matrix(0.367925 0 0 0.367958 277.961 30)">-</text><text fill="#000000" fill-opacity="1" font-family="Calibri,Calibri_MSFontService,sans-serif" font-style="normal" font-variant="normal" font-weight="400" font-stretch="normal" font-size="28" text-anchor="start" direction="ltr" writing-mode="lr-tb" unicode-bidi="normal" text-decoration="none" transform="matrix(0.367925 0 0 0.367958 281.088 30)">b: Moderated Mediation of Information </text><text fill="#000000" fill-opacity="1" font-family="Calibri,Calibri_MSFontService,sans-serif" font-style="normal" font-variant="normal" font-weight="400" font-stretch="normal" font-size="28" text-anchor="start" direction="ltr" writing-mode="lr-tb" unicode-bidi="normal" text-decoration="none" transform="matrix(0.367925 0 0 0.367958 449.449 30)">Overload and Valence</text><path d="M530.547 185.679C530.547 181.277 534.116 177.708 538.52 177.708L638.47 177.708C642.875 177.708 646.443 181.277 646.443 185.679L646.443 217.566C646.443 221.969 642.875 225.538 638.47 225.538L538.52 225.538C534.116 225.538 530.547 221.969 530.547 217.566Z" stroke="#000000" stroke-width="0.735849" stroke-linecap="butt" stroke-linejoin="miter" stroke-miterlimit="8" stroke-opacity="1" fill="none" fill-rule="evenodd" transform="matrix(1 0 0 1.00009 -41.2075 -94.1972)"/><path d="M100.075 187.074 100.075 111.59 588.966 111.59 588.966 174.028 588.23 174.028 588.23 111.958 588.598 112.326 100.443 112.326 100.811 111.958 100.811 187.074ZM590.806 173.292 588.598 177.708 586.391 173.292Z" fill="#000000" fill-rule="nonzero" fill-opacity="1" transform="matrix(1 0 0 1.00009 -41.2075 -94.1972)"/><path d="M41.5755 94.9245 664.84 94.9245 664.84 302.434 41.5755 302.434Z" stroke="#000000" stroke-width="0.735849" stroke-linecap="butt" stroke-linejoin="miter" stroke-miterlimit="8" stroke-opacity="1" fill="none" fill-rule="nonzero" transform="matrix(1 0 0 1.00009 -41.2075 -94.1972)"/></g></g></svg>